<?xml version="1.0" encoding="UTF-8"?>
<svg id="Layer_2" data-name="Layer 2" xmlns="http://www.w3.org/2000/svg" viewBox="0 0 160 160">
  <defs>
    <style>
      .cls-1 {
        fill: none;
      }

      .cls-2 {
        fill: #4f2683;
      }
    </style>
  </defs>
  <g id="Layer_1-2" data-name="Layer 1">
    <rect class="cls-1" width="160" height="160"/>
    <g>
      <path class="cls-2" d="M10.97,96.5c.42,1.12,1.96,1.35,3.52,1.61,2.92.33,5.87.47,8.78.87,11.28,1.17,22.37,4.86,32.41,10.76,3.47,2.05,6.87,4.29,10.51,5.97,2.51,1.18,5.09,2.16,7.69,3.07,8.58,3.22,17.61,4.9,26.64,3.72,3.26-.37,6.56-1.08,9.56-2.6,3.81-1.9,6.99-5.12,9.86-8.57,1.9-2.41,4.29-5.47-.49-4.46-.94.17-2.18.47-3.27.71-4.7,1-9.51,1.16-14.26.65-11.4-1.37-21.94-6.96-32.6-11.33-3.76-1.47-7.62-2.51-11.47-3.65-12.3-3.83-25.46-6.27-38.04-2.66-2.45.71-5.06,1.73-7.13,3.27-.92.66-2.01,1.88-1.72,2.64h0Z"/>
      <path class="cls-2" d="M158.75,62.43c-.91-.63-3.36,1.32-4.58,2.06-6.23,4.25-13.33,6.6-20.48,7.85-7.68,1.33-15.5.39-23.09-1.32-5.99-1.3-11.91-2.97-17.76-4.91-3.3-1.07-6.59-2.18-9.94-3.02-5.09-1.32-10.32-1.86-15.49-2.6-3.21-.45-6.41-.95-9.62-1.32-6.96-.81-13.96-.84-20.88.03-11.53,1.59-23.26,6-32.06,14.8-1.64,1.73-5.33,5.79-3.17,7.88,1.69,1.3,5.17.44,7.36.17,4.94-.78,9.89-1.17,14.87-1.43,8.55-.57,17.12.39,25.43,2.68,6.79,1.74,13.42,4.19,19.75,7.46,4.22,2.12,8.39,4.4,12.82,5.93,4.22,1.47,8.57,2.44,12.91,3.34,13,3.02,25.1,2.65,37.64-2.49,4.22-1.67,8.43-3.91,11.82-7.18,4.83-4.58,7.92-11,10.96-17.33.81-1.94,4.8-9.47,3.55-10.56h0Z"/>
      <path class="cls-2" d="M127.81,65.86c4.94-1.17,9.69-3.51,13.5-7.3,2.38-2.3,4.87-5.72,6.35-8.24.55-1.01,1.54-2.53,1.52-3.69,0-.13-.03-.26-.09-.38-.39-.68-1.58-.33-3.35.17-1.23.38-2.73.94-4.37,1.47-9.79,3.26-20.3,1.84-30.04-1.11-4.69-1.4-9.29-3.09-13.98-4.45-6.38-1.86-12.88-3.31-19.42-4.24-5.78-.87-11.64-1.3-17.46-.67-6.85.64-14.48,2.89-20.07,7.28-1.25.94-2.88,2.71-2.46,3.62.2.55.84.95,1.89,1.2.72.17,1.61.26,2.64.3,2.08.08,4.34-.06,6.47-.07,9.39-.02,18.85,1.46,27.74,4.94,6.53,2.54,12.75,5.97,19.33,8.33,10.22,3.63,21.19,5.37,31.76,2.86"/>
    </g>
  </g>
</svg>