<?xml version="1.0" encoding="UTF-8"?>
<svg id="Layer_2" data-name="Layer 2" xmlns="http://www.w3.org/2000/svg" viewBox="0 0 450 133.35">
  <defs>
    <style>
      .cls-1, .cls-2 {
        fill: #4f2683;
      }

      .cls-2 {
        font-family: Arial-BoldMT, Arial;
        font-size: 27.51px;
        font-weight: 700;
      }
    </style>
  </defs>
  <g id="Layer_1-2" data-name="Layer 1">
    <g>
      <g>
        <path class="cls-1" d="M10.26,61.11c.43,1.15,2.02,1.39,3.62,1.65,3,.34,6.04.48,9.04.9,11.61,1.2,23.02,5,33.36,11.07,3.58,2.11,7.07,4.42,10.81,6.15,2.58,1.21,5.24,2.22,7.91,3.16,8.83,3.32,18.12,5.04,27.42,3.83,3.36-.38,6.75-1.11,9.84-2.67,3.92-1.96,7.19-5.27,10.15-8.82,1.95-2.48,4.41-5.63-.5-4.59-.97.18-2.25.49-3.36.73-4.84,1.03-9.79,1.2-14.68.67-11.74-1.41-22.58-7.16-33.55-11.67-3.87-1.51-7.84-2.59-11.8-3.76-12.66-3.94-26.21-6.45-39.15-2.74-2.52.74-5.21,1.78-7.34,3.36-.95.68-2.07,1.93-1.77,2.72h0Z"/>
        <path class="cls-1" d="M162.37,26.04c-.94-.65-3.46,1.36-4.72,2.12-6.41,4.38-13.72,6.79-21.08,8.08-7.9,1.37-15.95.4-23.77-1.36-6.16-1.34-12.26-3.06-18.28-5.06-3.4-1.1-6.78-2.24-10.23-3.11-5.24-1.36-10.63-1.92-15.94-2.68-3.3-.46-6.59-.98-9.91-1.36-7.16-.83-14.37-.87-21.49.03-11.86,1.64-23.94,6.17-33,15.24-1.69,1.78-5.49,5.96-3.27,8.11,1.74,1.34,5.32.46,7.57.17,5.08-.8,10.18-1.21,15.3-1.47,8.8-.59,17.62.4,26.17,2.76,6.99,1.79,13.81,4.31,20.33,7.67,4.34,2.19,8.63,4.53,13.19,6.1,4.35,1.52,8.82,2.51,13.29,3.44,13.38,3.1,25.84,2.72,38.74-2.57,4.34-1.72,8.67-4.02,12.17-7.39,4.97-4.71,8.16-11.32,11.28-17.84.83-1.99,4.94-9.75,3.65-10.87h0Z"/>
        <path class="cls-1" d="M130.53,29.58c5.09-1.21,9.98-3.61,13.89-7.52,2.45-2.37,5.01-5.89,6.54-8.48.56-1.04,1.59-2.6,1.56-3.79,0-.14-.03-.27-.09-.39-.4-.7-1.63-.34-3.45.18-1.27.39-2.81.97-4.5,1.51-10.08,3.36-20.9,1.89-30.92-1.14-4.83-1.44-9.56-3.18-14.39-4.58-6.57-1.92-13.26-3.41-19.99-4.36-5.95-.89-11.98-1.34-17.97-.69-7.05.66-14.9,2.98-20.66,7.49-1.28.96-2.96,2.79-2.53,3.73.2.57.87.98,1.95,1.23.74.17,1.66.27,2.71.31,2.14.08,4.46-.06,6.66-.07,9.67-.02,19.4,1.5,28.56,5.09,6.73,2.62,13.12,6.14,19.9,8.57,10.52,3.73,21.81,5.52,32.69,2.94"/>
      </g>
      <g id="LIBRA2_combined" data-name="LIBRA2 combined">
        <path class="cls-1" d="M296.42,68.42h17.53l8.02-21.42.59-.78h3.56l1.49.52.89.78.59,2.61-4.46,12.8-.3,5.48h27.33l7.13-9.93h14.56l.3.26v3.4l-.3.26-.3,6.01h17.23l.3-.52v-4.44l.3-.26v-4.44l.3-.26v-4.44l.3-.26v-4.44l.3-.26v-4.44l.3-.26v-4.44l.3-.26v-4.44l.3-.26v-4.44l.3-.26v-4.44l.3-.26v-4.18l.3-.52-.3-.26h-14.85l-28.82,39.7-5.35,7.31-.89.78-.89-1.57v-3.66l2.67-10.71v-3.66l-.59-1.31-2.38-2.09-1.49-.78,3.86-1.31,3.56-1.83,3.27-2.61,2.38-3.13,1.49-3.66v-3.92l-.89-2.09-3.56-3.13-2.38-1.04-4.46-1.04h-2.08l-.3-.26h-26.74l-17.53,45.97-.89,1.83ZM375.14,35.77l.3.26v2.35l-.3.26v3.66l-.3.26v3.4l-.3.26v3.66l-.3.26v1.83l-.3.26h-10.1l-.3-.26.3-.26v-.26l.3-.26v-.26l.59-.52v-.26l.59-.52v-.26l.3-.26v-.26l.59-.52v-.26l.59-.52v-.26l.59-.52v-.26l.3-.26v-.26l.59-.52v-.26l.59-.52v-.26l.59-.52v-.26l.3-.26v-.26l.59-.52v-.26l.59-.52v-.26l.3-.26v-.26l.59-.52v-.26l.59-.52v-.26l.59-.52v-.26l.3-.26v-.26l.59-.52v-.26l.59-.52v-.26l.3-.26v-.26l.3-.26ZM336.82,27.15l1.19,1.04v.26l.3.26v2.87l-.3.26v.78l-.3.26v.52l-.3.26v.52l-.3.26v.26l-.3.26v.26l-.3.26v.26l-.3.26v.26l-.59.52v.26l-2.67,2.35h-.3l-.3.26h-.3l-.3.26h-.3l-.3.26h-.3l-.3.26h-.89l-.3.26h-1.49l-.3.26h-2.67l-.3-.26v-.52l.3-.26v-.52l.3-.26v-.52l.3-.26v-.52l.3-.26v-.52l.3-.26v-.52l.3-.26v-.52l.3-.26v-.52l.3-.26v-.52l.3-.26v-.52l.3-.26v-.52l.3-.26v-.52l.3-.26v-.52l.3-.26v-.52l.3-.26v-.52l.3-.26v-.52l.3-.26v-.26l.3-.26v-.52l.3-.26v-.26l.3-.26h4.16l.3.26h.89l.3.26h.3l.3.26h.3Z"/>
        <path class="cls-1" d="M301.47,24.54l-1.49-1.31h-.3l-.59-.52h-.3l-1.49-.78h-.59l-.3-.26h-.59l-.3-.26h-.89l-.3-.26h-1.19l-.3-.26h-2.38l-.3-.26h-27.63v.26l-.3.26v.52l-.3.26v.52l-.3.26v.52l-.3.26v.52l-.3.26v.52l-.3.26v.52l-.3.26v.52l-.3.26v.52l-.3.26v.52l-.3.26v.52l-.3.26v.52l-.3.26v.52l-.3.26v.52l-.3.26v.52l-.3.26v.52l-.59.78v.52l-.3.26v.52l-.3.26v.52l-.3.26v.52l-.3.26v.52l-.3.26v.52l-.3.26v.52l-.3.26v.52l-.3.26v.52l-.3.26v.52l-.3.26v.52l-.3.26v.52l-.3.26v.52l-.3.26v.52l-.3.26v.52l-.3.26v.52l-.3.26v.52l-.59.78v.52l-.3.26v.52l-.3.26v.52l-.3.26v.52l-.3.26v.52l-.3.26v.52l-.3.26v.52l-.3.26v.52l-.3.26v.52l-.3.26v.52l-.3.26v.52l-.3.26v.52l-.3.26v.52l-.3.26v.52l-.3.26v.52l-.3.26v.52l-.3.26v.52l-.59.78v.52l-.3.26v.52l-.3.26v.52l-.3.26v.52l-.3.26v.52l-.3.26v.52l-.3.26v.52l-.3.26v.52l-.3.26v.52l-.3.26v.26h32.08l.3-.26h1.78l.3-.26h1.19l.3-.26h.89l.3-.26h.89l.89-.52h.59l.89-.52h.59l.3-.26.89-.26.59-.52h.3l.59-.52h.3l.59-.52h.3l2.97-2.61v-.26l.89-.78v-.26l.59-.52v-.26l.3-.26v-.26l.3-.26v-.26l.3-.26v-.26l.89-1.31v-.52l.3-.26v-.52l.3-.26v-.78l.3-.26v-.78l.3-.26v-3.4l-.3-.26v-.78l-.3-.26v-.52l-.59-.52-.3-.78-1.78-1.57h-.3l-1.49-1.04h-.3l-.3-.26h-.59l-.59-.52.3-.26h.59l.3-.26h.59l.3-.26h.3l.3-.26h.3l.3-.26h.3l.3-.26.89-.26.59-.52h.3l.59-.52h.3l1.19-1.04h.3l.89-.78v-.26l1.19-1.04v-.26l.59-.52.3-.78.59-.52v-.52l.3-.26v-.26l.59-.78v-.52l.3-.26v-.78l.3-.26v-1.31l.3-.26v-1.83l-.3-.26v-1.04l-.3-.26v-.52l-.3-.26v-.26l-.59-.52v-.26ZM277.7,47l.89.78v.26l.3.26v.52l.3.26v2.87l-.3.26v.78l-.3.26v.78l-.3.26v.52l-.3.26v.52l-.3.26v.26l-.3.26v.52l-.3.26v.26l-.3.26v.26l-.59.52v.26l-.59.52v.26l-2.38,2.09h-.3l-.59.52h-.3l-.3.26h-.59l-.3.26h-.3l-.3.26h-1.19l-.3.26h-5.05l-.3-.26.3-.26v-.26l.3-.26v-.52l.3-.26v-.52l.3-.26v-.52l.3-.26v-.52l.3-.26v-.52l.3-.26v-.52l.3-.26v-.52l.3-.26v-.52l.3-.26v-.52l.3-.26v-.52l.3-.26v-.52l.3-.26v-.52l.3-.26v-.52l.3-.26v-.52l.3-.26v-.52l.3-.26v-.52l.3-.26v-.52l.3-.26v-.26l.3-.26v-.52l.3-.26v-.52l.3-.26v-.26l.3-.26h5.64l.3.26h.59l.59.52h.3ZM284.83,26.63l.59.52v.26l.3.26v1.04l.3.26-.3.26v1.57l-.3.26v.78l-.3.26v.52l-.3.26v.52l-.3.26v.52l-.3.26v.26l-.3.26v.26l-.3.26v.26l-.3.26v.26l-.3.26v.26l-.59.52v.26l-2.38,2.09h-.3l-.59.52h-.3l-.3.26h-.59l-.3.26h-5.05l-.3-.26v-.52l.3-.26v-.52l.3-.26v-.52l.3-.26v-.52l.3-.26v-.52l.3-.26v-.52l.3-.26v-.26l.3-.26v-.52l.3-.26v-.52l.3-.26v-.52l.3-.26v-.52l.3-.26v-.52l.3-.26v-.52l.3-.26v-.52l.3-.26v-.52l.3-.26v-.52l.3-.26v-.52l.3-.26v-.52l.3-.26v-.52l.3-.26h4.46l.3.26h1.19l.59.52h.3Z"/>
        <path class="cls-1" d="M253.34,20.62h-17.23v.26l-.3.26v.52l-.3.26v.52l-.3.26v.52l-.3.26v.52l-.3.26v.52l-.3.26v.52l-.3.26v.26l-.3.26v.52l-.3.26v.52l-.3.26v.52l-.3.26v.52l-.3.26v.52l-.3.26v.52l-.3.26v.52l-.3.26v.52l-.3.26v.52l-.3.26v.52l-.3.26v.52l-.3.26v.52l-.3.26v.52l-.3.26v.52l-.3.26v.52l-.3.26v.52l-.3.26v.52l-.3.26v.26l-.3.26v.52l-.3.26v.52l-.3.26v.52l-.3.26v.52l-.3.26v.52l-.3.26v.52l-.3.26v.52l-.3.26v.52l-.3.26v.52l-.3.26v.52l-.3.26v.52l-.3.26v.52l-.3.26v.52l-.3.26v.52l-.3.26v.52l-.3.26v.52l-.3.26v.52l-.3.26v.26l-.3.26v.52l-.3.26v.52l-.3.26v.52l-.3.26v.52l-.3.26v.52l-.3.26v.52l-.3.26v.52l-.3.26v.52l-.3.26v.52l-.3.26v.52l-.3.26v.52l-.3.26v.52l-.3.26v.52l-.3.26v.52l-.3.26v.52l-.3.26v.52l-.3.26v.52l-.3.26v.26l-.3.26v.52h17.23l.3-.26v-.52l.3-.26v-.52l.3-.26v-.52l.3-.26v-.52l.3-.26v-.52l.3-.26v-.52l.3-.26v-.52l.3-.26v-.52l.3-.26v-.52l.3-.26v-.52l.3-.26v-.52l.3-.26v-.52l.3-.26v-.52l.3-.26v-.52l.3-.26v-.52l.3-.26v-.26l.3-.26v-.52l.3-.26v-.52l.3-.26v-.52l.3-.26v-.52l.3-.26v-.52l.3-.26v-.52l.3-.26v-.52l.3-.26v-.52l.3-.26v-.52l.3-.26v-.52l.3-.26v-.52l.3-.26v-.52l.3-.26v-.52l.3-.26v-.52l.3-.26v-.52l.3-.26v-.52l.3-.26v-.52l.3-.26v-.26l.3-.26v-.52l.3-.26v-.52l.3-.26v-.52l.3-.26v-.52l.3-.26v-.52l.3-.26v-.52l.3-.26v-.52l.3-.26v-.52l.3-.26v-.52l.3-.26v-.52l.3-.26v-.52l.3-.26v-.52l.3-.26v-.52l.3-.26v-.52l.3-.26v-.52l.3-.26v-.52l.3-.26v-.26l.3-.26v-.52l.3-.26v-.52l.3-.26v-.52l.3-.26v-.52l.3-.26v-.52l.3-.26v-.52l.3-.26v-.52l.3-.26v-.52l.3-.26v-.52l.3-.26v-.52l.3-.26v-.52Z"/>
        <path class="cls-1" d="M193.34,20.62v.26l-.3.26v.52l-.3.26v.52l-.3.26v.52l-.3.26v.52l-.3.26v.52l-.3.26v.52l-.3.26v.52l-.3.26v.52l-.3.26v.52l-.3.26v.52l-.3.26v.52l-.3.26v.52l-.3.26v.52l-.3.26v.52l-.59.78v.52l-.3.26v.52l-.3.26v.52l-.3.26v.52l-.3.26v.52l-.3.26v.52l-.3.26v.52l-.3.26v.52l-.3.26v.52l-.3.26v.52l-.3.26v.52l-.3.26v.52l-.3.26v.52l-.3.26v.52l-.3.26v.52l-.3.26v.52l-.59.78v.52l-.3.26v.52l-.3.26v.52l-.3.26v.52l-.3.26v.52l-.3.26v.52l-.3.26v.52l-.3.26v.52l-.3.26v.52l-.3.26v.52l-.3.26v.52l-.3.26v.52l-.3.26v.52l-.3.26v.52l-.3.26v.52l-.3.26v.52l-.3.26v.52l-.59.78v.52l-.3.26v.52l-.3.26v.52l-.3.26v.52l-.3.26v.52l-.3.26v.52l-.3.26v.52l-.3.26v.52l-.3.26v.52l-.3.26v.52l-.3.26v.52l-.3.26v.26h39.51v-.52l.59-.78v-.52l.3-.26v-.52l.3-.26v-.52l.3-.26v-.52l.3-.26v-.52l.3-.26v-.78h-21.69l-.3-.26.3-.26v-.52l.59-.78v-.52l.3-.26v-.52l.3-.26v-.52l.3-.26v-.52l.3-.26v-.52l.3-.26v-.52l.3-.26v-.52l.3-.26v-.52l.3-.26v-.52l.3-.26v-.52l.3-.26v-.52l.3-.26v-.52l.3-.26v-.52l.3-.26v-.52l.3-.26v-.52l.3-.26v-.52l.3-.26v-.52l.59-.78v-.52l.3-.26v-.52l.3-.26v-.52l.3-.26v-.52l.3-.26v-.52l.3-.26v-.52l.3-.26v-.52l.3-.26v-.52l.3-.26v-.52l.3-.26v-.52l.3-.26v-.52l.3-.26v-.52l.3-.26v-.52l.3-.26v-.52l.3-.26v-.52l.3-.26v-.52l.59-.78v-.52l.3-.26v-.52l.3-.26v-.52l.3-.26v-.52l.3-.26v-.52l.3-.26v-.52l.3-.26v-.52l.3-.26v-.52l.3-.26v-.52l.3-.26v-.52l.3-.26v-.52l.3-.26v-.52l.3-.26v-.52l.3-.26v-.52l.3-.26v-.52l.3-.26v-.52l.3-.26v-.52h-17.23Z"/>
        <path class="cls-1" d="M448.51,25.06l-2.97-2.61-3.56-1.57-1.78-.26-.3-.26h-1.19l-.3-.26-5.94-.26-.3.26h-3.56l-.3.26h-1.78l-.3.26h-1.19l-.3.26h-.89l-.3.26h-.59l-.3.26-2.38.52-2.38,1.04-.59.52-.89.26-2.08,1.57h-.3l-1.78,1.57v.26l-2.08,2.09-.3.78-.59.52-.89,1.57v.52l-.59.78v.52l-.3.26v.52l-.59,1.04v1.04l-.3.26v1.57l-.3.26v1.57l1.78.26.3.26h.89l.3.26h.89l.3.26h.89l.3.26h.89l.3.26h.89l.3.26h.89l.3.26v-1.31l.3-.26v-2.09l.3-.26.3-2.61.3-.26.3-1.31.59-.78v-.52l1.19-2.09,1.49-1.57v-.26l1.78-1.57h.3l.89-.78,2.67-1.04h.89l.3-.26h3.86l.3.26,1.19.26.89.78.3,1.04.3.26v1.57l-.3.26v1.04l-.3.26-.3,1.57-1.19,2.09-1.49,1.57v.26l-2.08,1.83v.26l-4.75,3.92h-.3l-1.78,1.57h-.3l-2.67,2.09h-.3l-4.46,3.13-1.19.52-.89.78-1.19.52-2.08,1.57-1.19.52-.89.78h-.3l-.89.78h-.3l-.89.78h-.3l-.89.78h-.3l-.89.78h-.3l-.89.78h-.3l-1.19,1.04h-.3l-2.08,1.57-.3,1.04-.3.26v.52l-.3.26v.52l-.3.26v.52l-.3.26v.52l-.3.26v.52l-.3.26v.52l-.59.78-.3,1.04h41.89l.3-1.04.3-.26v-.52l.59-.78v-.52l.3-.26v-.52l.3-.26v-.52l.3-.26v-.52l.3-.26v-.52l.3-.26v-.52l.3-.26v-.52l.3-.26v-.52l.3-.26v-.52l.3-.26v-.52l.3-.26.59-2.09h-20.2l-.3-.26,2.38-1.57.89-.26,3.27-2.09.89-.26,1.49-1.04,2.38-1.04.59-.52h.3l1.49-1.04.89-.26.59-.52,1.19-.52.89-.78,1.19-.52,2.38-1.83h.3l2.08-1.83h.3l3.27-3.13v-.26l1.49-1.57,1.19-2.09v-.52l.59-1.04v-.78l.3-.26v-3.66l-.3-.26v-.78l-1.19-2.09Z"/>
      </g>
    </g>
    <text class="cls-2" transform="translate(9.46 123)"><tspan x="0" y="0">AI Native Financial Infrastructure</tspan></text>
  </g>
</svg>